<svg width="256" height="256" viewBox="0 0 256 256" fill="none" xmlns="http://www.w3.org/2000/svg">
<g clip-path="url(#clip0_3_14)">
<rect width="256" height="256" transform="matrix(0 -1 1 0 0 256)" fill="#6938EF"/>
<rect width="256" height="256" transform="matrix(0 -1 1 0 0 256)" fill="url(#paint0_linear_3_14)"/>
<g filter="url(#filter0_d_3_14)">
<path d="M124 167.333C101.909 167.333 84 149.425 84 127.333C84 105.242 101.909 87.3333 124 87.3333L124 51.3333C82.0264 51.3333 48 85.3597 48 127.333C48 169.307 82.0264 203.333 124 203.333C165.974 203.333 200 169.307 200 127.333L164 127.333C164 149.425 146.091 167.333 124 167.333Z" fill="url(#paint1_linear_3_14)"/>
<path opacity="0.5" d="M124 87.3333C146.091 87.3333 164 69.4247 164 47.3333H200C200 89.307 165.974 123.333 124 123.333L124 87.3333Z" fill="url(#paint2_linear_3_14)"/>
</g>
</g>
<defs>
<filter id="filter0_d_3_14" x="16" y="43.3333" width="224" height="188" filterUnits="userSpaceOnUse" color-interpolation-filters="sRGB">
<feFlood flood-opacity="0" result="BackgroundImageFix"/>
<feColorMatrix in="SourceAlpha" type="matrix" values="0 0 0 0 0 0 0 0 0 0 0 0 0 0 0 0 0 0 127 0" result="hardAlpha"/>
<feMorphology radius="8" operator="erode" in="SourceAlpha" result="effect1_dropShadow_3_14"/>
<feOffset dy="12"/>
<feGaussianBlur stdDeviation="12"/>
<feComposite in2="hardAlpha" operator="out"/>
<feColorMatrix type="matrix" values="0 0 0 0 0.141176 0 0 0 0 0.141176 0 0 0 0 0.141176 0 0 0 0.1 0"/>
<feBlend mode="normal" in2="BackgroundImageFix" result="effect1_dropShadow_3_14"/>
<feBlend mode="normal" in="SourceGraphic" in2="effect1_dropShadow_3_14" result="shape"/>
</filter>
<linearGradient id="paint0_linear_3_14" x1="128" y1="3.17892e-06" x2="138.667" y2="256" gradientUnits="userSpaceOnUse">
<stop stop-color="white" stop-opacity="0"/>
<stop offset="1" stop-color="white" stop-opacity="0.12"/>
</linearGradient>
<linearGradient id="paint1_linear_3_14" x1="48" y1="127.333" x2="200" y2="127.333" gradientUnits="userSpaceOnUse">
<stop stop-color="white" stop-opacity="0.8"/>
<stop offset="1" stop-color="white" stop-opacity="0.5"/>
</linearGradient>
<linearGradient id="paint2_linear_3_14" x1="124" y1="85.3333" x2="200" y2="85.3333" gradientUnits="userSpaceOnUse">
<stop stop-color="white" stop-opacity="0.8"/>
<stop offset="1" stop-color="white" stop-opacity="0.5"/>
</linearGradient>
<clipPath id="clip0_3_14">
<rect width="256" height="256" fill="white" transform="matrix(0 -1 1 0 0 256)"/>
</clipPath>
</defs>
</svg>
