<svg width="981" height="288" viewBox="0 0 981 288" fill="none" xmlns="http://www.w3.org/2000/svg">
<g filter="url(#filter0_ddiii_19_41)">
<g clip-path="url(#clip0_19_41)">
<rect x="16" y="256" width="256" height="256" rx="64" transform="rotate(-90 16 256)" fill="#6938EF"/>
<rect width="256" height="256" transform="matrix(0 -1 1 0 16 256)" fill="url(#paint0_linear_19_41)"/>
<g filter="url(#filter1_d_19_41)">
<path d="M140 167.333C117.909 167.333 100 149.425 100 127.333C100 105.242 117.909 87.3333 140 87.3333L140 51.3333C98.0264 51.3333 64 85.3597 64 127.333C64 169.307 98.0264 203.333 140 203.333C181.974 203.333 216 169.307 216 127.333L180 127.333C180 149.425 162.091 167.333 140 167.333Z" fill="url(#paint1_linear_19_41)"/>
<path opacity="0.5" d="M140 87.3333C162.091 87.3333 180 69.4247 180 47.3333H216C216 89.307 181.974 123.333 140 123.333V87.3333Z" fill="url(#paint2_linear_19_41)"/>
</g>
</g>
<rect x="21.3333" y="250.667" width="245.333" height="245.333" rx="58.6667" transform="rotate(-90 21.3333 250.667)" stroke="url(#paint3_linear_19_41)" stroke-width="10.6667"/>
</g>
<path d="M408.875 194.8C397.092 194.8 387 192.058 378.6 186.575C370.2 180.975 363.783 173.333 359.35 163.65C354.917 153.85 352.7 142.65 352.7 130.05C352.7 117.567 354.917 106.425 359.35 96.625C363.9 86.825 370.433 79.125 378.95 73.525C387.467 67.8083 397.675 64.95 409.575 64.95C419.725 64.95 428.3 66.7583 435.3 70.375C442.417 73.9917 448.017 78.95 452.1 85.25C456.3 91.55 459.217 98.725 460.85 106.775L441.075 107.825C439.675 100.242 436.525 94.1167 431.625 89.45C426.725 84.6667 419.375 82.275 409.575 82.275C400.942 82.275 393.883 84.4333 388.4 88.75C382.917 93.0667 378.833 98.8417 376.15 106.075C373.583 113.308 372.3 121.3 372.3 130.05C372.3 139.15 373.583 147.258 376.15 154.375C378.833 161.492 382.917 167.15 388.4 171.35C394 175.433 401.117 177.475 409.75 177.475C416.517 177.475 422.35 176.017 427.25 173.1C432.15 170.183 435.942 166.217 438.625 161.2C441.425 156.183 442.942 150.642 443.175 144.575H409.925V128.65H461.2V192H448.25L447.025 164L449.475 166.1C448.192 171.7 445.567 176.658 441.6 180.975C437.633 185.292 432.792 188.675 427.075 191.125C421.475 193.575 415.408 194.8 408.875 194.8ZM522.915 194.1C513.815 194.1 505.94 192.117 499.29 188.15C492.757 184.183 487.682 178.525 484.065 171.175C480.565 163.825 478.815 155.25 478.815 145.45C478.815 135.65 480.565 127.133 484.065 119.9C487.682 112.55 492.757 106.892 499.29 102.925C505.823 98.8417 513.523 96.8 522.39 96.8C530.79 96.8 538.198 98.7833 544.615 102.75C551.032 106.6 555.99 112.2 559.49 119.55C563.107 126.9 564.915 135.767 564.915 146.15V150.875H498.065C498.532 159.975 500.923 166.8 505.24 171.35C509.673 175.9 515.623 178.175 523.09 178.175C528.573 178.175 533.123 176.892 536.74 174.325C540.357 171.758 542.865 168.317 544.265 164L563.515 165.225C561.065 173.858 556.223 180.858 548.99 186.225C541.873 191.475 533.182 194.1 522.915 194.1ZM498.065 136.875H545.315C544.732 128.592 542.34 122.467 538.14 118.5C534.057 114.533 528.807 112.55 522.39 112.55C515.74 112.55 510.257 114.65 505.94 118.85C501.74 122.933 499.115 128.942 498.065 136.875ZM583.711 192V98.9H600.686L601.386 123.75L599.111 122.525C600.161 116.458 602.144 111.558 605.061 107.825C607.978 104.092 611.536 101.35 615.736 99.6C619.936 97.7333 624.486 96.8 629.386 96.8C636.386 96.8 642.161 98.375 646.711 101.525C651.378 104.558 654.878 108.758 657.211 114.125C659.661 119.375 660.886 125.383 660.886 132.15V192H642.336V137.75C642.336 132.267 641.753 127.658 640.586 123.925C639.419 120.192 637.494 117.333 634.811 115.35C632.128 113.367 628.628 112.375 624.311 112.375C617.778 112.375 612.469 114.533 608.386 118.85C604.303 123.167 602.261 129.467 602.261 137.75V192H583.711ZM720.929 194.1C712.179 194.1 704.77 192.758 698.704 190.075C692.754 187.392 688.145 183.717 684.879 179.05C681.612 174.267 679.745 168.783 679.279 162.6L698.354 161.725C699.287 166.858 701.504 170.942 705.004 173.975C708.504 177.008 713.812 178.525 720.929 178.525C726.762 178.525 731.37 177.592 734.754 175.725C738.137 173.858 739.829 170.883 739.829 166.8C739.829 164.583 739.245 162.717 738.079 161.2C737.029 159.567 734.929 158.225 731.779 157.175C728.629 156.008 723.962 154.9 717.779 153.85C708.562 152.1 701.329 150.058 696.079 147.725C690.829 145.392 687.095 142.417 684.879 138.8C682.662 135.183 681.554 130.808 681.554 125.675C681.554 117.158 684.704 110.217 691.004 104.85C697.42 99.4833 706.637 96.8 718.654 96.8C726.704 96.8 733.47 98.2 738.954 101C744.437 103.683 748.695 107.358 751.729 112.025C754.879 116.575 756.862 121.708 757.679 127.425L738.604 128.475C738.02 125.208 736.854 122.408 735.104 120.075C733.47 117.625 731.254 115.758 728.454 114.475C725.654 113.075 722.329 112.375 718.479 112.375C712.529 112.375 708.095 113.542 705.179 115.875C702.262 118.208 700.804 121.242 700.804 124.975C700.804 127.775 701.445 130.05 702.729 131.8C704.129 133.55 706.345 135.008 709.379 136.175C712.412 137.225 716.437 138.158 721.454 138.975C731.137 140.608 738.72 142.65 744.204 145.1C749.687 147.433 753.537 150.35 755.754 153.85C757.97 157.35 759.079 161.608 759.079 166.625C759.079 172.458 757.445 177.417 754.179 181.5C750.912 185.583 746.42 188.733 740.704 190.95C734.987 193.05 728.395 194.1 720.929 194.1ZM816.177 194.1C807.077 194.1 799.202 192.117 792.552 188.15C786.018 184.183 780.943 178.525 777.327 171.175C773.827 163.825 772.077 155.25 772.077 145.45C772.077 135.65 773.827 127.133 777.327 119.9C780.943 112.55 786.018 106.892 792.552 102.925C799.085 98.8417 806.785 96.8 815.652 96.8C824.052 96.8 831.46 98.7833 837.877 102.75C844.293 106.6 849.252 112.2 852.752 119.55C856.368 126.9 858.177 135.767 858.177 146.15V150.875H791.327C791.793 159.975 794.185 166.8 798.502 171.35C802.935 175.9 808.885 178.175 816.352 178.175C821.835 178.175 826.385 176.892 830.002 174.325C833.618 171.758 836.127 168.317 837.527 164L856.777 165.225C854.327 173.858 849.485 180.858 842.252 186.225C835.135 191.475 826.443 194.1 816.177 194.1ZM791.327 136.875H838.577C837.993 128.592 835.602 122.467 831.402 118.5C827.318 114.533 822.068 112.55 815.652 112.55C809.002 112.55 803.518 114.65 799.202 118.85C795.002 122.933 792.377 128.942 791.327 136.875ZM915.298 194.1C906.431 194.1 898.673 192.117 892.023 188.15C885.373 184.183 880.239 178.525 876.623 171.175C873.006 163.825 871.198 155.25 871.198 145.45C871.198 135.533 873.006 126.958 876.623 119.725C880.239 112.492 885.373 106.892 892.023 102.925C898.673 98.8417 906.431 96.8 915.298 96.8C924.164 96.8 931.923 98.8417 938.573 102.925C945.223 106.892 950.356 112.492 953.973 119.725C957.589 126.958 959.398 135.533 959.398 145.45C959.398 155.25 957.589 163.825 953.973 171.175C950.356 178.525 945.223 184.183 938.573 188.15C931.923 192.117 924.164 194.1 915.298 194.1ZM915.298 178C923.231 178 929.356 175.142 933.673 169.425C937.989 163.592 940.148 155.6 940.148 145.45C940.148 135.3 937.989 127.367 933.673 121.65C929.356 115.817 923.231 112.9 915.298 112.9C907.481 112.9 901.356 115.817 896.923 121.65C892.606 127.367 890.448 135.3 890.448 145.45C890.448 155.6 892.606 163.592 896.923 169.425C901.356 175.142 907.481 178 915.298 178Z" fill="black"/>
<defs>
<filter id="filter0_ddiii_19_41" x="-4.76837e-07" y="-16" width="288" height="304" filterUnits="userSpaceOnUse" color-interpolation-filters="sRGB">
<feFlood flood-opacity="0" result="BackgroundImageFix"/>
<feColorMatrix in="SourceAlpha" type="matrix" values="0 0 0 0 0 0 0 0 0 0 0 0 0 0 0 0 0 0 127 0" result="hardAlpha"/>
<feOffset dy="5.33333"/>
<feGaussianBlur stdDeviation="2.66667"/>
<feComposite in2="hardAlpha" operator="out"/>
<feColorMatrix type="matrix" values="0 0 0 0 0.162923 0 0 0 0 0.162923 0 0 0 0 0.162923 0 0 0 0.08 0"/>
<feBlend mode="normal" in2="BackgroundImageFix" result="effect1_dropShadow_19_41"/>
<feColorMatrix in="SourceAlpha" type="matrix" values="0 0 0 0 0 0 0 0 0 0 0 0 0 0 0 0 0 0 127 0" result="hardAlpha"/>
<feMorphology radius="5.33333" operator="erode" in="SourceAlpha" result="effect2_dropShadow_19_41"/>
<feOffset dy="16"/>
<feGaussianBlur stdDeviation="10.6667"/>
<feComposite in2="hardAlpha" operator="out"/>
<feColorMatrix type="matrix" values="0 0 0 0 0.164706 0 0 0 0 0.164706 0 0 0 0 0.164706 0 0 0 0.14 0"/>
<feBlend mode="normal" in2="effect1_dropShadow_19_41" result="effect2_dropShadow_19_41"/>
<feBlend mode="normal" in="SourceGraphic" in2="effect2_dropShadow_19_41" result="shape"/>
<feColorMatrix in="SourceAlpha" type="matrix" values="0 0 0 0 0 0 0 0 0 0 0 0 0 0 0 0 0 0 127 0" result="hardAlpha"/>
<feOffset dy="-16"/>
<feGaussianBlur stdDeviation="8"/>
<feComposite in2="hardAlpha" operator="arithmetic" k2="-1" k3="1"/>
<feColorMatrix type="matrix" values="0 0 0 0 0 0 0 0 0 0 0 0 0 0 0 0 0 0 0.1 0"/>
<feBlend mode="normal" in2="shape" result="effect3_innerShadow_19_41"/>
<feColorMatrix in="SourceAlpha" type="matrix" values="0 0 0 0 0 0 0 0 0 0 0 0 0 0 0 0 0 0 127 0" result="hardAlpha"/>
<feOffset dy="16"/>
<feGaussianBlur stdDeviation="8"/>
<feComposite in2="hardAlpha" operator="arithmetic" k2="-1" k3="1"/>
<feColorMatrix type="matrix" values="0 0 0 0 1 0 0 0 0 1 0 0 0 0 1 0 0 0 0.1 0"/>
<feBlend mode="normal" in2="effect3_innerShadow_19_41" result="effect4_innerShadow_19_41"/>
<feColorMatrix in="SourceAlpha" type="matrix" values="0 0 0 0 0 0 0 0 0 0 0 0 0 0 0 0 0 0 127 0" result="hardAlpha"/>
<feMorphology radius="5.33333" operator="erode" in="SourceAlpha" result="effect5_innerShadow_19_41"/>
<feOffset/>
<feComposite in2="hardAlpha" operator="arithmetic" k2="-1" k3="1"/>
<feColorMatrix type="matrix" values="0 0 0 0 0 0 0 0 0 0 0 0 0 0 0 0 0 0 0.2 0"/>
<feBlend mode="normal" in2="effect4_innerShadow_19_41" result="effect5_innerShadow_19_41"/>
</filter>
<filter id="filter1_d_19_41" x="32" y="43.3333" width="224" height="188" filterUnits="userSpaceOnUse" color-interpolation-filters="sRGB">
<feFlood flood-opacity="0" result="BackgroundImageFix"/>
<feColorMatrix in="SourceAlpha" type="matrix" values="0 0 0 0 0 0 0 0 0 0 0 0 0 0 0 0 0 0 127 0" result="hardAlpha"/>
<feMorphology radius="8" operator="erode" in="SourceAlpha" result="effect1_dropShadow_19_41"/>
<feOffset dy="12"/>
<feGaussianBlur stdDeviation="12"/>
<feComposite in2="hardAlpha" operator="out"/>
<feColorMatrix type="matrix" values="0 0 0 0 0.141176 0 0 0 0 0.141176 0 0 0 0 0.141176 0 0 0 0.1 0"/>
<feBlend mode="normal" in2="BackgroundImageFix" result="effect1_dropShadow_19_41"/>
<feBlend mode="normal" in="SourceGraphic" in2="effect1_dropShadow_19_41" result="shape"/>
</filter>
<linearGradient id="paint0_linear_19_41" x1="128" y1="3.17892e-06" x2="138.667" y2="256" gradientUnits="userSpaceOnUse">
<stop stop-color="white" stop-opacity="0"/>
<stop offset="1" stop-color="white" stop-opacity="0.12"/>
</linearGradient>
<linearGradient id="paint1_linear_19_41" x1="64" y1="127.333" x2="216" y2="127.333" gradientUnits="userSpaceOnUse">
<stop stop-color="white" stop-opacity="0.8"/>
<stop offset="1" stop-color="white" stop-opacity="0.5"/>
</linearGradient>
<linearGradient id="paint2_linear_19_41" x1="140" y1="85.3333" x2="216" y2="85.3333" gradientUnits="userSpaceOnUse">
<stop stop-color="white" stop-opacity="0.8"/>
<stop offset="1" stop-color="white" stop-opacity="0.5"/>
</linearGradient>
<linearGradient id="paint3_linear_19_41" x1="144" y1="256" x2="144" y2="512" gradientUnits="userSpaceOnUse">
<stop stop-color="white" stop-opacity="0.12"/>
<stop offset="1" stop-color="white" stop-opacity="0"/>
</linearGradient>
<clipPath id="clip0_19_41">
<rect x="16" y="256" width="256" height="256" rx="64" transform="rotate(-90 16 256)" fill="white"/>
</clipPath>
</defs>
</svg>
